 <!DOCTYPE svg PUBLIC "-//W3C//DTD SVG 1.1//EN" "http://www.w3.org/Graphics/SVG/1.1/DTD/svg11.dtd">
<svg id="b6d4fe21-9714-4363-bba0-e3d965f0ff65" data-name="Layer 1" xmlns="http://www.w3.org/2000/svg" width="865.76" height="682.89" viewBox="0 0 865.76 682.89">
<defs>
<style xmlns="http://www.w3.org/1999/xhtml">*, ::after, ::before { box-sizing: border-box; }
img, svg { vertical-align: middle; }
</style>
<style xmlns="http://www.w3.org/1999/xhtml">*, body, html { -webkit-font-smoothing: antialiased; }
img, svg { max-width: 100%; }
</style>
</defs>
<path d="M438.85,361.66a14,14,0,0,0-2.74-8.61s-1.64-4.95-.75-8.12L498,356.77l1.07-8.15,31.51,13,.29,1.85s-17.71,24.85-35.41,30A14.16,14.16,0,0,1,484,391.92c-4.3-2.69-11.07-8.15-20.15-19.21,0,0-11.43-10.8-25.14-10.8" fill="#f7aa92"/>
<path d="M414.67,504.82a80.17,80.17,0,0,0,9.83,49.56c19,33.36,69.92,88.72,196,78.31,0,0,119.85-12.06,143.93-103.54a88.47,88.47,0,0,0-11.6-71.28,150.09,150.09,0,0,0-22.43-26.31c-27.08-25.5-61.67-41.5-98.48-46.79-52-7.48-138.77-7.76-193.09,57.38C438.85,442.15,419.21,467.83,414.67,504.82Z" fill="#d1d3d4"/>
<path d="M540.83,283.27s-20.14,26.78-9,85.92c0,0,11.57,57-.43,63.86,0,0,24,5.57,49.29,36,0,0,11.78,7.93,14.14,13.72,0,0,34.71-10.5,69.86-4.5,0,0,14-42,10-105.56,0,0,1.9-54-25.9-73.31,0,0-13.54-14.29-39.75-8.89l-55.34-10.89-8.79-3.43Z" fill="#0071f2" data-primary="true"/>
<path d="M450.4,532.05s41.79,68.05,106.48,30.31a101,101,0,0,0,19.38-15c11.51-11.2,46.64-39.67,101-33.25a70.77,70.77,0,0,0,25-1.23c15.91-3.83,34.83-14.78,28.87-45.59,0,0-1.84-30.61-45.42-55.72,0,0,54.42,21,50.57,75.43,0,0-.64,25-35.09,32.58a78.68,78.68,0,0,1-26.11,1.1c-14.74-1.73-52.88-2.36-90.14,28.89C584.92,549.62,508.26,628.05,450.4,532.05Z" opacity="0.2"/>
<path d="M547.11,280.48a87.37,87.37,0,0,0-9.71-16s8.08-8,11.44-14.88C548.84,249.63,551.1,270.7,547.11,280.48Z" fill="#f7aa92"/>
<path d="M579.4,367.05s55.29,5.57,63,9c0,0,12.32-59,6.38-76.65A43.52,43.52,0,0,0,609,290.51s-26.63,6.26-27.49,52.11Z" fill="#0071f2" data-primary="true"/>
<path d="M579.4,367.05s55.29,5.57,63,9c0,0,12.32-59,6.38-76.65A43.52,43.52,0,0,0,609,290.51s-26.63,6.26-27.49,52.11Z" opacity="0.1"/>
<path d="M491.54,346.48l74.15,43.71c15.42,12,16.3-22.87,16.3-22.87,10.54,1,21.5,2.21,32.81,3.81,8,1.12,15.8,2.37,23.34,3.7L614.9,436.91s-17.78,25.72-47.93,0c0,0-49-36.87-76.91-66.33a19.86,19.86,0,0,0-9.62-5.59c-5.8-1.47-14.71-3.36-21.45-3.22a14.62,14.62,0,0,1-10.19-3.68c-1.54-1.4-3.43-3.23-5.69-5.61,0,0-14.63-15.54-24.17-19.25a1.78,1.78,0,0,1-.81-2.78,1.59,1.59,0,0,1,1.27-.54s-11.57-9.72-.14-7.72c0,0,20.85,9.15,28.57,9.15l12.28-.29s-27.42-6.57-23.14-16c0,0,1.72-3.43,10,0a148.19,148.19,0,0,1,22.12,6.41,34.75,34.75,0,0,1,18.38,16.88Z" fill="#f9b499"/>
<path d="M422.14,334.79s-9.74,10.83-4.88,15.12c0,0,7.43,8,10.57,8,0,0,2.77,5.48,7,6.87a3.14,3.14,0,0,0,4-3.12c-.07-2.41-.22-5.74-2.54-8.36a1.43,1.43,0,0,1-.29-.56,27.54,27.54,0,0,1-.66-7.81c.35-2.28-3.55-3.32-5.73-5A69.21,69.21,0,0,0,422.14,334.79Z" fill="#f7aa92"/>
<path d="M495.07,346.26s14.32-43.15,45.76-63c0,0-17.77,26.43-10.28,78.39C530.55,361.66,503.87,351.91,495.07,346.26Z" fill="#0071f2" data-primary="true"/>
<path d="M495.07,346.26s14.32-43.15,45.76-63c0,0-17.77,26.43-10.28,78.39C530.55,361.66,503.87,351.91,495.07,346.26Z" opacity="0.1"/>
<path d="M696.4,448.34s0-9.29,3.86-5.43c0,0,10.74,13.43,6.71,30.08a32.23,32.23,0,0,1-15.76,20.28,52.52,52.52,0,0,1-33,6.21s-33.06-2-57.7,17.11a49.87,49.87,0,0,0-5.11,4.64c-9,9.21-46.63,46.59-69.5,48.11,0,0-40.41,3.85-40.84-13.29,0,0,1.38-6.85,20.67-5.85a33.15,33.15,0,0,0,22.45-7.07,24.7,24.7,0,0,0,3.63-3.52,74,74,0,0,1,6.73-7.32c11.86-11,43.37-37.14,80.67-43.52C666.83,480.62,681.4,491.48,696.4,448.34Z" fill="#fff" opacity="0.2"/>
<path d="M261.85,556.87l33.9,28.18,124.68-66.76s47.49,21.82,76.83,27.91c0,0,7.42-11.94,17-19.29,0,0-34.18-5.57-79.16-34.14l-89,2.94Z" fill="#2f2e41" data-secondary="true"/>
<path d="M261.85,556.87l33.9,28.18,124.68-66.76s47.49,21.82,76.83,27.91c0,0,7.42-11.94,17-19.29,0,0-34.18-5.57-79.16-34.14l-89,2.94Z" fill="#fff" opacity="0.1"/>
<path d="M208.76,563.34s-13.2,3.58,1.69,10.36c0,0,23.93,11.14,67.95,22.54,0,0-9.95,9.48-20.29,11.1,0,0-12.81,4.69-18,7.92L235,611.4l4.15-5.65S213.47,597.64,208,592L169.7,565.4a1,1,0,0,1-.36-1.07C170.26,561.59,175.85,552.26,208.76,563.34Z" fill="#0071f2" data-primary="true"/>
<path d="M208.76,563.34s-13.2,3.58,1.69,10.36c0,0,23.93,11.14,67.95,22.54,0,0-9.95,9.48-20.29,11.1,0,0-12.81,4.69-18,7.92L235,611.4l4.15-5.65S213.47,597.64,208,592L169.7,565.4a1,1,0,0,1-.36-1.07C170.26,561.59,175.85,552.26,208.76,563.34Z" opacity="0.04"/>
<path d="M208.76,563.34s34.63,18.84,58.59-1.89l25.12,20.88s-8,9.07-14.07,13.91c0,0-53.18-14.16-71.31-24.29C207.09,572,198,566.16,208.76,563.34Z" fill="#f7aa92"/>
<path d="M419.4,329.91,400,314.54a.84.84,0,0,1,.29-1.46l11.42-3.23a5,5,0,0,1,4.27.76l27.75,20.21a121.91,121.91,0,0,1-18.11-6s-5.34-2.13-6.39-2.65c0,0-4.46-.68-5,.71C414.28,322.9,413.58,324.8,419.4,329.91Z" fill="#2f2e41" data-secondary="true"/>
<path d="M447.83,331.34l-32.68-23.61a2.43,2.43,0,0,0-2.06-.38l-12,3.19a1.81,1.81,0,0,0-1.35,1.81l0,1.18,12.67-3.82s1.51-.57,4.08,1.29l27.21,19.82c.69.13,1.42.25,2.2.35S447.24,331.3,447.83,331.34Z" fill="#2f2e41" data-secondary="true"/>
<path d="M273.2,39.8H107.55A12.63,12.63,0,0,0,94.91,52.43h0v67.88l14.87-15.89H273.2a12.64,12.64,0,0,0,12.64-12.64h0V52.43A12.63,12.63,0,0,0,273.2,39.8Z" fill="#bcbec0"/>
<circle cx="128.66" cy="67.56" r="17.76" transform="translate(-9.19 21.56) rotate(-9.25)" fill="#fff"/>
<line x1="156.9" y1="54.89" x2="193.7" y2="54.89" fill="none" stroke="#fff" stroke-linecap="round" stroke-linejoin="round" stroke-width="2.22"/>
<line x1="156.9" y1="67.7" x2="269.56" y2="67.7" fill="none" stroke="#fff" stroke-linecap="round" stroke-linejoin="round" stroke-width="1.11"/>
<line x1="156.9" y1="78.3" x2="269.56" y2="78.3" fill="none" stroke="#fff" stroke-linecap="round" stroke-linejoin="round" stroke-width="1.11"/>
<line x1="156.9" y1="90.02" x2="269.56" y2="90.02" fill="none" stroke="#fff" stroke-linecap="round" stroke-linejoin="round" stroke-width="1.11"/>
<path d="M361.12,131.52H195.38a12.63,12.63,0,0,0-12.62,12.63h0v39.41a12.64,12.64,0,0,0,12.62,12.64H358.82L373.76,212v-67.9A12.64,12.64,0,0,0,361.12,131.52Z" fill="#d1d3d4"/>
<path d="M281.62,147.68h-36.8a1.11,1.11,0,1,1,0-2.22h36.8a1.11,1.11,0,1,1,0,2.22Z" fill="#fff"/>
<path d="M357.48,160H244.82a.56.56,0,0,1-.56-.56.55.55,0,0,1,.56-.55H357.48a.54.54,0,0,1,.55.55A.55.55,0,0,1,357.48,160Z" fill="#fff"/>
<path d="M357.48,170.56H244.82a.56.56,0,1,1,0-1.11H357.48a.56.56,0,0,1,0,1.11Z" fill="#fff"/>
<path d="M357.48,182.27H244.82a.55.55,0,0,1-.56-.55.56.56,0,0,1,.56-.56H357.48a.55.55,0,0,1,.55.56A.54.54,0,0,1,357.48,182.27Z" fill="#fff"/>
<circle cx="217.32" cy="162.98" r="17.76" fill="#fff"/>
<path d="M279,224H113.3a12.63,12.63,0,0,0-12.74,12.53v68l14.94-15.83H279A12.64,12.64,0,0,0,291.59,276h0V236.61A12.61,12.61,0,0,0,279,224Z" fill="#bcbec0"/>
<circle cx="134.39" cy="251.71" r="17.76" fill="#fff"/>
<line x1="162.65" y1="239.05" x2="199.45" y2="239.05" fill="none" stroke="#fff" stroke-linecap="round" stroke-linejoin="round" stroke-width="2.22"/>
<line x1="162.65" y1="251.88" x2="275.31" y2="251.88" fill="none" stroke="#fff" stroke-linecap="round" stroke-linejoin="round" stroke-width="1.11"/>
<line x1="162.65" y1="262.49" x2="275.31" y2="262.49" fill="none" stroke="#fff" stroke-linecap="round" stroke-linejoin="round" stroke-width="1.11"/>
<line x1="162.65" y1="274.19" x2="275.31" y2="274.19" fill="none" stroke="#fff" stroke-linecap="round" stroke-linejoin="round" stroke-width="1.11"/>
<path d="M366.87,316.43H201.13a12.63,12.63,0,0,0-12.62,12.65h0v39.41a12.62,12.62,0,0,0,12.6,12.64H364.57L379.51,397V329.08a12.63,12.63,0,0,0-12.62-12.65Z" fill="#d1d3d4"/>
<path d="M287.37,332.63h-36.8a1.11,1.11,0,1,1,0-2.22h36.8a1.11,1.11,0,1,1,0,2.22Z" fill="#fff"/>
<path d="M363.23,344.91H250.57a.56.56,0,0,1-.56-.56.55.55,0,0,1,.56-.55H363.23a.54.54,0,0,1,.55.55A.55.55,0,0,1,363.23,344.91Z" fill="#fff"/>
<path d="M363.23,355.49H250.57a.56.56,0,1,1,0-1.11H363.23a.56.56,0,0,1,0,1.11Z" fill="#fff"/>
<path d="M363.23,367.21H250.57a.56.56,0,1,1,0-1.11H363.23a.56.56,0,0,1,0,1.11Z" fill="#fff"/>
<circle cx="223.07" cy="347.93" r="17.76" fill="#fff"/>
<path d="M220.84,334.44a8.28,8.28,0,0,0-8.39,5.75A55.09,55.09,0,0,0,209,357.54c0,3.68,7.27,6.58,11.25,6.89s12.92.15,16-4.75-1.91-14.83-3.15-21S225.12,334.14,220.84,334.44Z" fill="#2f2e41" data-secondary="true"/>
<path d="M232,346.72s1.87-2.49,2.27,0-3.17,5.58-3.17,5.58Z" fill="#f9b499"/>
<path d="M214.17,346.72s-1.87-2.49-2.28,0,3.18,5.58,3.18,5.58Z" fill="#f9b499"/>
<path d="M223.73,334.46s-7-.55-8.66,4.15-.54,12.25,0,13.69,5.05,8.48,6.31,9,4.32.36,4.87-.36,5-7.4,5.4-9.75a84.81,84.81,0,0,0-.19-10.33,6.41,6.41,0,0,0-4-5.59A12.22,12.22,0,0,0,223.73,334.46Z" fill="#f9b499"/>
<path d="M218.38,336.28s11.37,10.44,13.65,10.44,2.57-7.69.12-11.36S218,329.55,218.38,336.28Z" fill="#2f2e41" data-secondary="true"/>
<path d="M215.06,148.63a8.27,8.27,0,0,0-8.39,5.75,55.38,55.38,0,0,0-3.47,17.35c0,3.68,7.28,6.58,11.25,6.88s12.92.16,16-4.74-1.92-14.83-3.15-21S219.33,148.33,215.06,148.63Z" fill="#2f2e41" data-secondary="true"/>
<path d="M226.24,160.9s1.87-2.48,2.28,0-3.18,5.59-3.18,5.59Z" fill="#f9b499"/>
<path d="M208.38,160.9s-1.86-2.48-2.27,0,3.18,5.59,3.18,5.59Z" fill="#f9b499"/>
<path d="M218,148.65s-7-.55-8.66,4.15-.54,12.25,0,13.69,5,8.48,6.31,9,4.32.36,4.86-.36,5-7.4,5.41-9.75a82.85,82.85,0,0,0-.2-10.33,6.41,6.41,0,0,0-4-5.59A11.61,11.61,0,0,0,218,148.65Z" fill="#f9b499"/>
<path d="M212.6,150.47S224,160.9,226.24,160.9s2.58-7.68.13-11.35S212.24,143.74,212.6,150.47Z" fill="#2f2e41" data-secondary="true"/>
<path d="M293,566.48l49.72,20.86s74.25-47.15,92.41-94.57c0,0,51.46,31.8,79.16,34.14,0,0,47-38.33,80.57-44.14,0,0-3.57-7.72-14.14-13.72,0,0-20.86-27.14-49.29-36,0,0-70.71-15.43-106.71-16.28,0,0-8.58-1.29-20.58,9.85,0,0-32.85,31.76-58,69.09Z" fill="#2f2e41" data-secondary="true"/>
<path d="M302.17,570.34s-24.06,33.57-44.06,37c0,0-6.85,9.43,6.29,7.71,0,0,50-16,68.57-24.86l4.27-5.14Z" fill="#f9b499"/>
<path d="M307.83,621.62v4.92a2.32,2.32,0,0,0,2.5,2.31l22.36-1.8s9.71-11.43.28-36.86L264.4,615.05s-7,1.36-8-2.39c0,0,0-3.32,1.71-5.32,0,0-31.57,10.57-30.71,21.71,0,0-2.14,4.72,11.86,3.29l40.53-2a17.29,17.29,0,0,0,4.67-.88Z" fill="#0071f2" data-primary="true"/>
<path d="M550.23,246.17c-2.88,9.17-12.83,18.34-12.83,18.34a17,17,0,0,1-11.73,4.22,22.13,22.13,0,0,1-16.1-7.41c-30.4-33.44-28.24-58.9-28.24-58.9S550.49,194.82,550.23,246.17Z" fill="#f9b499"/>
<path d="M487.36,205.3s62.09-7.33,61.82,52.14c0,0-4.71,50,1.05,73.09,0,0,9.17,25.68-11.79,32.75,0,0,29.35,16,39.56-16.77l3.67-12.83s5.24-53.45,47.42-43.49c0,0,24.37.78,39,38.25a181.28,181.28,0,0,1,6.55,44.27s15.09-7.11,18.42-34.34a81.11,81.11,0,0,0-11.89-52.43,130.65,130.65,0,0,0-28.1-32s-24-16.72-36.85-23.57c0,0-13.35-7.79-25.75-25.32,0,0-28.25-51.83-62.11-48.4,0,0-29.06-5.14-47.1,30,0,0-10.53,13.69-1.41,37.71.84,2.22,1.6,4.48,2.3,6.75A77.89,77.89,0,0,0,488,244.92a55.5,55.5,0,0,0,6.07,9c3,3.65,9.44,14.21,6.45,36,0,0-9.57,38.56-3.79,51.85,0,0,13.47-36.86,44.08-58.49l4.07-7.08s-3.87-7.93-7.5-11.68c0,0-4.53,4.52-13.3,4.14,0,0-10.13.72-25.08-20.3,0,0-17.94-23.52-17.69-45.93C481.33,202.42,481.45,204.48,487.36,205.3Z" fill="#2f2e41" data-secondary="true"/>
<path d="M483.74,204.44s-.15,5.63,24.21,10.43A44.23,44.23,0,0,1,519.67,219c9.05,4.7,22.36,14.77,23.45,33.62,0,0,2.49,13,0,20.36,0,0,2.83-1.7,1.71-17.41A48.79,48.79,0,0,0,537,232a40.19,40.19,0,0,0-24.31-17.33s-18.81-5.21-25.33-9.32C487.36,205.3,485.75,205,483.74,204.44Z" fill="#2f2e41" data-secondary="true"/>
<path d="M143.07,252.19s2.17-2.52,2.59,0-3.19,5.59-3.19,5.59Z" fill="#f9b499"/>
<path d="M125.62,252.27s-2-2.6-2.38-.12,3.17,5.59,3.17,5.59Z" fill="#f9b499"/>
<path d="M143.05,254.6c0-2.75,0-5.51-.25-8.26a6.41,6.41,0,0,0-4-5.59,12.16,12.16,0,0,0-3.77-.85s-7-.55-8.66,4.15c-1.21,3.52-.9,8.63-.45,11.58.33,6.47,4,11.58,8.53,11.58a6.09,6.09,0,0,0,1.35-.17,2.88,2.88,0,0,0,1.75-.62l.07-.11c2.66-1.55,4.66-5,5.23-9.18a3.35,3.35,0,0,0,.11-.46l0-1.13c0-.28,0-.56,0-.84C143.06,254.66,143.05,254.63,143.05,254.6Z" fill="#f9b499"/>
<path d="M142.8,246.33a6.39,6.39,0,0,0-4-5.59,11.86,11.86,0,0,0-3.77-.84s-7-.55-8.66,4.15a22.83,22.83,0,0,0-.79,8.22c.36.43,1.5,1.68,1.35.1-.21-1.87-.42-7.46,1-8.71s1.66-2.27,3.72-.62,1.87,3.11,4,2.07,2.48-3.32,4.33-2.49,1.25,4.78,1.25,6.63,0,5.39,1.25,3.73a5.22,5.22,0,0,0,.55-1.11C143,250,142.89,247.91,142.8,246.33Z" fill="#2f2e41" data-secondary="true"/>
<path d="M133.09,239.55a5,5,0,0,0-1.62-2l-1-.6s2.42-1,3.22-.21a15.43,15.43,0,0,1,1.41,1.62s.41-2.83,1.42-1.82a17.32,17.32,0,0,0,1.82,1.61s-2.83.82-2.83,2.84" fill="#2f2e41" data-secondary="true"/>
<path d="M137.28,68.14s2.17-2.52,2.59,0-3.19,5.59-3.19,5.59Z" fill="#f9b499"/>
<path d="M119.83,68.22s-2-2.6-2.38-.12,3.18,5.59,3.18,5.59Z" fill="#f9b499"/>
<path d="M137.26,70.55c.05-2.76,0-5.52-.25-8.26a6.41,6.41,0,0,0-4-5.59,11.89,11.89,0,0,0-3.77-.86s-7-.54-8.65,4.16c-1.22,3.51-.91,8.62-.46,11.58.33,6.47,4,11.57,8.53,11.57a6.09,6.09,0,0,0,1.35-.17,2.88,2.88,0,0,0,1.75-.62l.07-.1c2.66-1.56,4.67-5,5.23-9.19a3.24,3.24,0,0,0,.11-.45l0-1.14c0-.28,0-.55,0-.84C137.27,70.61,137.26,70.58,137.26,70.55Z" fill="#f9b499"/>
<path d="M137,62.27a6.41,6.41,0,0,0-4-5.59,12.14,12.14,0,0,0-3.77-.84s-7-.54-8.65,4.16a22.59,22.59,0,0,0-.8,8.22c.36.42,1.5,1.67,1.35.09-.21-1.87-.42-7.45,1-8.7s1.66-2.28,3.72-.62,1.87,3.1,3.95,2.06,2.48-3.31,4.33-2.48,1.25,4.77,1.25,6.62,0,5.39,1.25,3.74a5.07,5.07,0,0,0,.55-1.12C137.21,65.92,137.1,63.85,137,62.27Z" fill="#2f2e41" data-secondary="true"/>
<path d="M127.3,55.49a5,5,0,0,0-1.61-2l-1-.61s2.42-1,3.22-.21a15.54,15.54,0,0,1,1.41,1.63s.41-2.83,1.42-1.82a19.94,19.94,0,0,0,1.82,1.61s-2.83.81-2.83,2.83" fill="#2f2e41" data-secondary="true"/>
</svg>